<svg xmlns="http://www.w3.org/2000/svg" xmlns:xlink="http://www.w3.org/1999/xlink" width="363" height="30" viewBox="0 0 363 30"><defs><path id="a" d="M717.268 1158.648c.35.117.848.167 1.263.167.664 0 .88-.067 1.179-.283.5-.364.98-1.127.98-2.486 0-2.355-1.56-3.036-2.541-3.036-.416 0-.714.017-.88.067-.117.032-.15.1-.15.232v5.042c0 .18.033.248.15.297zm11.943 4.545c-1.626-1.427-2.058-3.284-2.058-4.892 0-1.129.348-3.084 1.943-4.544 1.196-1.094 2.773-1.757 5.249-1.757 1.03 0 1.645.065 2.409.164.631.084 1.162.232 1.661.282.183.018.248.1.248.2 0 .133-.049.332-.081.912-.034.547-.018 1.46-.05 1.79-.018.249-.05.383-.2.383-.134 0-.166-.134-.166-.366a2.367 2.367 0 0 0-.648-1.525c-.549-.58-1.844-1.028-3.372-1.028-1.445 0-2.392.365-3.124 1.028-1.212 1.11-1.528 2.686-1.528 4.294 0 3.947 3.007 5.904 5.233 5.904 1.478 0 2.375-.165 3.04-.929a2.77 2.77 0 0 0 .565-1.094c.05-.264.083-.332.216-.332.115 0 .15.115.15.25 0 .198-.199 1.641-.366 2.205-.084.282-.149.364-.432.48-.664.266-1.927.382-2.99.382-2.275 0-4.186-.498-5.7-1.807m14.478-6.153c0-2.521 0-2.985-.033-3.516-.035-.564-.166-.829-.715-.944a3.36 3.36 0 0 0-.648-.051c-.182 0-.283-.033-.283-.149 0-.115.117-.149.366-.149.45 0 .931.017 1.346.017.432.017.814.032 1.046.032.532 0 3.838 0 4.154-.015.316-.034.581-.066.714-.101.084-.015.183-.065.266-.065.082 0 .099.065.099.149 0 .116-.082.315-.132 1.078-.018.166-.05.895-.084 1.094-.016.082-.05.182-.165.182-.117 0-.15-.083-.15-.232 0-.116-.017-.398-.1-.597-.117-.299-.281-.497-1.112-.596-.283-.034-2.028-.068-2.359-.068-.084 0-.117.05-.117.167v4.195c0 .115.017.183.117.183.365 0 2.275 0 2.657-.033.398-.035.648-.083.798-.25.115-.132.182-.215.266-.215.066 0 .115.034.115.133s-.065.365-.132 1.21c-.017.333-.067.996-.067 1.112 0 .133 0 .314-.15.314-.116 0-.148-.065-.148-.149-.018-.165-.018-.381-.067-.596-.082-.333-.315-.58-.93-.648-.316-.033-1.961-.049-2.36-.049-.082 0-.099.066-.099.165v1.31c0 .565-.017 2.09 0 2.57.033 1.146.299 1.394 1.994 1.394.432 0 1.128 0 1.56-.199.433-.2.632-.548.748-1.227.034-.182.067-.249.183-.249.133 0 .133.132.133.298 0 .383-.133 1.51-.215 1.841-.117.431-.266.431-.897.431-1.247 0-2.161-.033-2.874-.048a35.88 35.88 0 0 0-1.728-.05c-.183 0-.548 0-.947.016-.382 0-.814.034-1.146.034-.217 0-.332-.05-.332-.167 0-.083.065-.134.264-.134.25 0 .45-.032.599-.065.333-.066.416-.431.482-.912.083-.697.083-2.006.083-3.532v-2.92m10.688 7.53c-.266-.116-.316-.2-.316-.564 0-.912.066-1.906.084-2.173.015-.247.066-.431.199-.431.149 0 .167.15.167.282 0 .217.066.564.149.846.365 1.227 1.345 1.674 2.375 1.674 1.496 0 2.226-1.01 2.226-1.89 0-.812-.25-1.575-1.628-2.652l-.763-.598c-1.828-1.427-2.46-2.586-2.46-3.929 0-1.825 1.527-3.134 3.838-3.134 1.08 0 1.777.164 2.21.28.149.034.231.084.231.199 0 .216-.066.698-.066 1.99 0 .365-.049.499-.183.499-.117 0-.167-.1-.167-.3 0-.15-.082-.662-.43-1.095-.25-.314-.731-.811-1.812-.811-1.23 0-1.977.712-1.977 1.708 0 .763.383 1.343 1.761 2.387l.466.35c2.01 1.509 2.724 2.653 2.724 4.229 0 .96-.366 2.105-1.562 2.884-.83.531-1.76.68-2.641.68-.963 0-1.71-.116-2.425-.431m18.552-7.53c0-2.52 0-2.984-.033-3.515-.035-.564-.2-.845-.565-.929a2.39 2.39 0 0 0-.596-.066c-.167 0-.266-.033-.266-.165 0-.099.133-.133.398-.133.63 0 1.674.05 2.156.05.414 0 1.393-.05 2.023-.05.215 0 .348.034.348.133 0 .132-.1.165-.265.165s-.3.018-.498.051c-.448.083-.58.364-.613.944-.035.53-.035.995-.035 3.516v2.919c0 1.608 0 2.919.068 3.632.05.447.166.746.662.812.233.033.598.065.846.065.184 0 .266.05.266.134 0 .117-.132.167-.315.167-1.094 0-2.14-.05-2.586-.05-.383 0-1.427.05-2.09.05-.216 0-.332-.05-.332-.167 0-.083.066-.134.265-.134.249 0 .449-.032.598-.065.331-.066.43-.348.481-.829.083-.696.083-2.007.083-3.615v-2.92m9.977 5.474c.033 1.293.25 1.724.581 1.84.282.1.598.115.864.115.184 0 .283.034.283.134 0 .133-.15.167-.382.167-1.08 0-1.746-.05-2.061-.05-.15 0-.93.05-1.793.05-.217 0-.366-.018-.366-.167 0-.1.1-.134.266-.134.217 0 .515-.015.748-.082.43-.133.498-.613.515-2.056l.15-9.767c0-.332.049-.563.215-.563.182 0 .332.214.614.514.2.215 2.725 2.869 5.15 5.271 1.13 1.13 3.372 3.517 3.655 3.782h.084l-.167-7.445c-.017-1.013-.166-1.328-.565-1.493-.25-.1-.648-.1-.88-.1-.2 0-.266-.05-.266-.149 0-.132.183-.149.43-.149.866 0 1.662.05 2.011.05.183 0 .815-.05 1.63-.05.215 0 .38.017.38.15 0 .098-.099.148-.298.148-.167 0-.298 0-.499.051-.466.132-.597.48-.615 1.408l-.182 10.465c0 .364-.066.514-.216.514-.183 0-.382-.183-.564-.365-1.047-.995-3.175-3.166-4.9-4.876-1.812-1.79-3.655-3.814-3.955-4.13h-.05l.183 6.917m14.623 2.056c-.266-.116-.316-.2-.316-.564 0-.912.066-1.906.083-2.173.017-.247.066-.431.2-.431.15 0 .166.15.166.282 0 .217.066.564.15.846.366 1.227 1.347 1.674 2.38 1.674 1.496 0 2.227-1.01 2.227-1.89 0-.812-.25-1.575-1.63-2.652l-.765-.598c-1.83-1.427-2.462-2.586-2.462-3.929 0-1.825 1.53-3.134 3.842-3.134 1.082 0 1.782.164 2.213.28.15.034.234.084.234.199 0 .216-.068.698-.068 1.99 0 .365-.049.499-.182.499-.116 0-.167-.1-.167-.3 0-.15-.084-.662-.432-1.095-.249-.314-.732-.811-1.813-.811-1.232 0-1.981.712-1.981 1.708 0 .763.384 1.343 1.765 2.387l.465.35c2.013 1.509 2.729 2.653 2.729 4.229 0 .96-.366 2.105-1.564 2.884-.832.531-1.764.68-2.646.68-.964 0-1.713-.116-2.428-.431m14.245-11.41l-2.476.067c-.963.033-1.363.116-1.612.481a1.952 1.952 0 0 0-.28.58c-.034.133-.084.2-.185.2-.116 0-.149-.083-.149-.266 0-.265.316-1.775.348-1.907.05-.215.1-.314.2-.314.134 0 .3.164.715.199a17.72 17.72 0 0 0 1.661.081h6.579c.53 0 .897-.049 1.146-.081.248-.05.38-.084.447-.084.117 0 .134.099.134.349 0 .348-.05 1.492-.05 1.923-.016.167-.05.266-.15.266-.133 0-.166-.084-.182-.332l-.018-.182c-.032-.432-.48-.896-1.959-.93l-2.093-.05v6.8c0 1.526 0 2.835.082 3.549.05.464.15.83.648.895.233.033.598.065.848.065.182 0 .266.05.266.134 0 .117-.133.167-.316.167-1.096 0-2.142-.05-2.608-.05-.382 0-1.428.05-2.092.05-.217 0-.334-.05-.334-.167 0-.083.067-.134.266-.134.25 0 .45-.032.599-.065.332-.066.43-.431.481-.912.084-.697.084-2.006.084-3.532v-6.8m11.17 3.88c0-2.52 0-2.984-.033-3.515-.034-.564-.2-.845-.565-.929a2.4 2.4 0 0 0-.597-.066c-.167 0-.266-.033-.266-.165 0-.099.133-.133.398-.133.632 0 1.678.05 2.16.05.415 0 1.396-.05 2.027-.05.216 0 .348.034.348.133 0 .132-.1.165-.266.165-.165 0-.299.018-.498.051-.448.083-.581.364-.614.944-.035.53-.035.995-.035 3.516v2.919c0 1.608 0 2.919.068 3.632.05.447.167.746.664.812.233.033.599.065.847.065.184 0 .267.05.267.134 0 .117-.133.167-.316.167-1.096 0-2.144-.05-2.59-.05-.384 0-1.43.05-2.094.05-.217 0-.333-.05-.333-.167 0-.083.066-.134.265-.134.25 0 .449-.032.599-.065.332-.066.43-.348.481-.829.084-.696.084-2.007.084-3.615v-2.92m11.181-3.88l-2.475.067c-.965.033-1.364.116-1.613.481a1.996 1.996 0 0 0-.282.58c-.032.133-.082.2-.183.2-.116 0-.149-.083-.149-.266 0-.265.316-1.775.349-1.907.05-.215.1-.314.199-.314.134 0 .3.164.714.199.482.049 1.114.081 1.662.081h6.579c.53 0 .895-.049 1.146-.081.248-.05.38-.084.447-.084.117 0 .134.099.134.349 0 .348-.051 1.492-.051 1.923-.015.167-.05.266-.15.266-.132 0-.165-.084-.18-.332l-.018-.182c-.033-.432-.483-.896-1.96-.93l-2.093-.05v6.8c0 1.526 0 2.835.083 3.549.05.464.149.83.647.895.232.033.598.065.848.065.182 0 .265.05.265.134 0 .117-.132.167-.315.167-1.097 0-2.142-.05-2.61-.05-.38 0-1.426.05-2.09.05-.217 0-.333-.05-.333-.167 0-.083.066-.134.265-.134.25 0 .449-.032.598-.065.333-.066.432-.431.482-.912.084-.697.084-2.006.084-3.532v-6.8m10.922 3.88c0-2.52 0-2.984-.033-3.515-.032-.564-.166-.829-.714-.944a3.373 3.373 0 0 0-.649-.051c-.182 0-.282-.033-.282-.149 0-.115.117-.149.365-.149.882 0 1.928.05 2.426.05.399 0 1.445-.05 2.044-.05.248 0 .366.034.366.15 0 .115-.1.148-.267.148-.183 0-.283.018-.481.051-.449.083-.583.364-.615.944-.033.53-.033.995-.033 3.516v2.321c0 2.405.481 3.417 1.295 4.08.747.614 1.512.68 2.076.68.732 0 1.629-.233 2.293-.896.914-.911.964-2.405.964-4.112v-2.073c0-2.521 0-2.985-.035-3.516-.032-.564-.165-.829-.712-.944a3.18 3.18 0 0 0-.6-.051c-.182 0-.281-.033-.281-.149 0-.115.116-.149.348-.149.848 0 1.894.05 1.91.05.201 0 1.247-.05 1.895-.05.233 0 .35.034.35.15 0 .115-.102.148-.301.148-.182 0-.282.018-.483.051-.447.083-.58.364-.614.944-.032.53-.032.995-.032 3.516v1.775c0 1.84-.183 3.798-1.579 4.99-1.178 1.012-2.375 1.195-3.455 1.195-.88 0-2.474-.05-3.688-1.144-.847-.763-1.478-1.99-1.478-4.395v-2.421m18.963-3.88l-2.475.066c-.964.033-1.362.116-1.613.481a1.952 1.952 0 0 0-.28.58c-.034.133-.084.2-.185.2-.115 0-.149-.083-.149-.266 0-.265.316-1.775.349-1.907.05-.215.1-.314.2-.314.133 0 .3.164.714.199.483.049 1.114.081 1.661.081h6.579c.53 0 .897-.049 1.146-.081.248-.05.382-.084.449-.084.115 0 .132.099.132.349 0 .348-.05 1.492-.05 1.923-.016.167-.05.266-.149.266-.134 0-.167-.084-.183-.332l-.016-.182c-.034-.432-.482-.896-1.96-.93l-2.094-.05v6.8c0 1.526 0 2.835.084 3.549.05.464.149.83.646.895.233.033.6.065.848.065.183 0 .266.05.266.134 0 .117-.132.167-.316.167-1.096 0-2.142-.05-2.608-.05-.382 0-1.428.05-2.092.05-.217 0-.333-.05-.333-.167 0-.083.066-.134.265-.134.25 0 .45-.032.6-.065.331-.066.431-.431.481-.912.083-.697.083-2.006.083-3.532v-6.8m11.28 3.88c0-2.52 0-2.984-.032-3.515-.034-.564-.167-.829-.716-.944a3.36 3.36 0 0 0-.647-.051c-.183 0-.284-.033-.284-.149 0-.115.117-.149.366-.149.45 0 .931.017 1.346.017.432.017.814.032 1.046.032.532 0 3.838 0 4.154-.015.316-.034.581-.066.714-.101.083-.015.183-.065.266-.065.082 0 .1.065.1.149 0 .116-.083.315-.133 1.078-.017.166-.05.895-.084 1.094-.017.082-.05.182-.166.182s-.15-.083-.15-.232c0-.116-.017-.398-.099-.597-.117-.299-.281-.497-1.113-.596-.282-.034-2.027-.068-2.358-.068-.084 0-.116.05-.116.167v4.195c0 .115.016.183.116.183.365 0 2.275 0 2.657-.033.399-.035.648-.083.797-.25.116-.132.183-.215.266-.215.067 0 .116.034.116.133s-.066.365-.132 1.21c-.017.333-.067.996-.067 1.112 0 .133 0 .314-.15.314-.116 0-.148-.065-.148-.149-.018-.165-.018-.381-.067-.596-.082-.333-.315-.58-.93-.648-.316-.033-1.961-.049-2.36-.049-.082 0-.098.066-.098.165v1.31c0 .565-.018 2.09 0 2.57.032 1.146.298 1.394 1.993 1.394.43 0 1.128 0 1.56-.199.432-.2.632-.548.747-1.227.035-.182.068-.249.184-.249.132 0 .132.132.132.298 0 .383-.132 1.51-.214 1.841-.117.431-.266.431-.897.431-1.247 0-2.161-.033-2.874-.048a35.97 35.97 0 0 0-1.729-.05c-.183 0-.549 0-.946.016-.383 0-.814.034-1.146.034-.217 0-.333-.05-.333-.167 0-.083.066-.134.265-.134.25 0 .45-.032.6-.065.331-.066.415-.431.48-.912.084-.697.084-2.006.084-3.532v-2.92m-187.824-4.245c-1.91 0-4.087 1.062-4.087 5.191 0 3.45 1.91 6.186 5.1 6.186 1.164 0 3.854-.564 3.854-5.356 0-3.715-2.142-6.02-4.867-6.02zm11.213 4.246c0-2.521 0-2.985-.032-3.516-.033-.564-.167-.829-.714-.944a3.373 3.373 0 0 0-.65-.051c-.18 0-.28-.033-.28-.149 0-.115.115-.149.364-.149.881 0 1.928.05 2.426.05.399 0 1.445-.05 2.043-.05.248 0 .366.034.366.15 0 .115-.1.148-.267.148-.181 0-.283.018-.48.051-.45.083-.583.364-.616.944-.032.53-.032.995-.032 3.516v2.321c0 2.405.48 3.417 1.295 4.08.747.614 1.512.68 2.076.68.731 0 1.628-.233 2.292-.896.915-.911.965-2.405.965-4.112v-2.073c0-2.521 0-2.985-.035-3.516-.033-.564-.165-.829-.713-.944a3.18 3.18 0 0 0-.599-.051c-.183 0-.282-.033-.282-.149 0-.115.117-.149.349-.149.848 0 1.894.05 1.911.05.2 0 1.246-.05 1.893-.05.233 0 .35.034.35.15 0 .115-.102.148-.3.148-.182 0-.283.018-.482.051-.448.083-.581.364-.615.944-.032.53-.032.995-.032 3.516v1.775c0 1.84-.183 3.798-1.579 4.99-1.179 1.012-2.375 1.195-3.455 1.195-.88 0-2.474-.05-3.688-1.144-.847-.763-1.479-1.99-1.479-4.395v-2.421m16.447-3.516c-.033-.564-.165-.829-.714-.944a3.373 3.373 0 0 0-.65-.051c-.18 0-.281-.033-.281-.149 0-.115.117-.149.366-.149.88 0 1.927.05 2.275.05.565 0 1.828-.05 2.343-.05 1.046 0 2.16.1 3.056.713.465.315 1.13 1.16 1.13 2.273 0 1.226-.515 2.354-2.193 3.714 1.48 1.857 2.626 3.333 3.605 4.36.93.962 1.611 1.079 1.86 1.129.184.033.333.048.467.048.131 0 .199.05.199.134 0 .133-.117.167-.316.167h-1.578c-.931 0-1.346-.084-1.778-.316-.714-.382-1.346-1.161-2.275-2.438-.667-.912-1.43-2.039-1.646-2.289-.083-.099-.182-.115-.298-.115l-1.445-.034c-.084 0-.134.034-.134.133v.231c0 1.544 0 2.853.084 3.55.05.481.15.846.646.912.25.033.616.065.815.065.133 0 .2.05.2.134 0 .117-.116.167-.333.167-.963 0-2.192-.05-2.442-.05-.315 0-1.361.05-2.025.05-.217 0-.334-.05-.334-.167 0-.083.067-.134.266-.134.25 0 .448-.032.597-.065.334-.066.416-.431.483-.912.084-.697.084-2.006.084-3.532v-2.92c0-2.52 0-2.984-.034-3.515zm-67.648 5.124c.35.117.848.167 1.263.167.664 0 .88-.067 1.179-.283.5-.364.98-1.127.98-2.486 0-2.355-1.56-3.036-2.541-3.036-.416 0-.714.017-.88.067-.117.032-.15.1-.15.232v5.042c0 .18.033.248.15.297zm12.994-1.608c0-2.521 0-2.985-.032-3.516-.033-.564-.167-.829-.715-.944a3.374 3.374 0 0 0-.648-.051c-.183 0-.284-.033-.284-.149 0-.115.117-.149.366-.149.45 0 .932.017 1.347.017.43.017.813.032 1.046.032.531 0 3.837 0 4.153-.015.316-.034.581-.066.714-.101.084-.015.183-.065.266-.065.084 0 .1.065.1.149 0 .116-.083.315-.133 1.078-.017.166-.05.895-.084 1.094-.016.082-.049.182-.165.182-.117 0-.15-.083-.15-.232 0-.116-.017-.398-.1-.597-.116-.299-.281-.497-1.112-.596-.283-.034-2.027-.068-2.359-.068-.083 0-.116.05-.116.167v4.195c0 .115.016.183.116.183.365 0 2.275 0 2.657-.033.399-.035.65-.083.798-.25.115-.132.182-.215.266-.215.066 0 .116.034.116.133s-.066.365-.133 1.21c-.017.333-.067.996-.067 1.112 0 .133 0 .314-.15.314-.116 0-.148-.065-.148-.149-.018-.165-.018-.381-.067-.596-.082-.333-.315-.58-.93-.648-.316-.033-1.96-.049-2.36-.049-.082 0-.098.066-.098.165v1.31c0 .565-.017 2.09 0 2.57.033 1.146.299 1.394 1.993 1.394.432 0 1.128 0 1.56-.199.433-.2.632-.548.749-1.227.033-.182.067-.249.182-.249.133 0 .133.132.133.298 0 .383-.133 1.51-.215 1.841-.117.431-.266.431-.897.431-1.247 0-2.161-.033-2.874-.048a35.883 35.883 0 0 0-1.729-.05c-.182 0-.547 0-.946.016-.382 0-.814.034-1.146.034-.217 0-.332-.05-.332-.167 0-.083.065-.134.266-.134.249 0 .448-.032.597-.065.333-.066.416-.431.482-.912.083-.697.083-2.006.083-3.532v-2.92m10.689 7.53c-.266-.116-.316-.2-.316-.564 0-.912.065-1.906.083-2.173.017-.247.066-.431.199-.431.15 0 .167.15.167.282 0 .217.066.564.149.846.366 1.227 1.345 1.674 2.376 1.674 1.495 0 2.225-1.01 2.225-1.89 0-.812-.25-1.575-1.628-2.652l-.763-.598c-1.828-1.427-2.46-2.586-2.46-3.929 0-1.825 1.529-3.134 3.838-3.134 1.08 0 1.777.164 2.21.28.149.034.233.084.233.199 0 .216-.068.698-.068 1.99 0 .365-.049.499-.183.499-.115 0-.165-.1-.165-.3 0-.15-.084-.662-.433-1.095-.248-.314-.73-.811-1.81-.811-1.23 0-1.978.712-1.978 1.708 0 .763.383 1.343 1.763 2.387l.465.35c2.009 1.509 2.724 2.653 2.724 4.229 0 .96-.365 2.105-1.563 2.884-.83.531-1.76.68-2.641.68-.962 0-1.71-.116-2.424-.431M687.948 1152c4.137 0 6.71 2.404 6.71 6.202 0 3.797-2.657 6.798-6.877 6.798-4.766 0-6.694-3.564-6.694-6.5 0-2.837 1.876-6.5 6.861-6.5zm-63.99 10.215c.018.414.05 1.077.184 1.26.215.314.864.663 2.176.663 1.693 0 2.825-.332 3.82-1.194 1.063-.913 1.396-2.421 1.396-4.13 0-2.105-.88-3.466-1.596-4.145-1.527-1.46-3.421-1.659-4.717-1.659-.332 0-.947.05-1.08.117-.15.066-.199.149-.199.331-.017.564-.017 2.006-.017 3.317v2.09c0 1.757.017 3.035.034 3.35zm21.378-8.69c-.034-.565-.167-.83-.714-.945a3.373 3.373 0 0 0-.649-.051c-.182 0-.282-.033-.282-.149 0-.115.117-.149.366-.149.88 0 1.927.05 2.275.05.565 0 1.828-.05 2.343-.05 1.046 0 2.16.1 3.056.713.465.315 1.13 1.16 1.13 2.273 0 1.226-.514 2.354-2.193 3.714 1.48 1.857 2.626 3.333 3.605 4.36.93.962 1.611 1.079 1.86 1.129.184.033.333.048.467.048.131 0 .199.05.199.134 0 .133-.117.167-.316.167h-1.578c-.931 0-1.346-.084-1.778-.316-.714-.382-1.345-1.161-2.275-2.438-.666-.912-1.43-2.039-1.646-2.289-.083-.099-.182-.115-.298-.115l-1.445-.034c-.084 0-.134.034-.134.133v.231c0 1.544 0 2.853.084 3.55.05.481.15.846.647.912.249.033.615.065.815.065.132 0 .2.05.2.134 0 .117-.117.167-.334.167-.962 0-2.192-.05-2.442-.05-.315 0-1.361.05-2.025.05-.217 0-.334-.05-.334-.167 0-.083.067-.134.266-.134.25 0 .449-.032.598-.065.333-.066.416-.431.482-.912.084-.697.084-2.006.084-3.532v-2.92c0-2.52 0-2.984-.034-3.515zm-48.05 5.123c.348.117.847.167 1.262.167.664 0 .881-.067 1.18-.283.498-.364.979-1.127.979-2.486 0-2.355-1.561-3.036-2.54-3.036-.417 0-.715.017-.881.067-.117.032-.15.1-.15.232v5.042c0 .18.033.248.15.297zm15.074 1.31c0 2.123 0 3.267.348 3.565.284.25.716.365 2.013.365.882 0 1.53-.015 1.947-.464.2-.216.399-.68.431-.995.017-.15.05-.248.183-.248.117 0 .133.083.133.282 0 .182-.115 1.425-.25 1.907-.098.365-.181.447-1.047.447-1.197 0-2.061-.033-2.81-.048a42.73 42.73 0 0 0-2.028-.05c-.185 0-.55 0-.949.016-.383 0-.816.034-1.147.034-.217 0-.334-.05-.334-.167 0-.083.067-.134.266-.134.25 0 .45-.032.6-.065.332-.066.416-.431.483-.912.082-.697.082-2.006.082-3.532v-2.92c0-2.52 0-2.984-.034-3.515-.033-.564-.165-.829-.714-.944a2.423 2.423 0 0 0-.549-.051c-.184 0-.283-.033-.283-.149 0-.115.117-.149.366-.149.782 0 1.829.05 2.278.05.4 0 1.614-.05 2.261-.05.235 0 .351.034.351.15 0 .115-.101.148-.3.148-.182 0-.448.018-.648.051-.45.083-.583.364-.617.944-.032.53-.032.995-.032 3.516v2.919m9.456-6.435c-.032-.564-.166-.829-.714-.944a3.373 3.373 0 0 0-.649-.051c-.183 0-.283-.033-.283-.149 0-.115.117-.149.366-.149.88 0 1.927.05 2.393.05.515 0 1.562-.05 2.558-.05 2.077 0 4.85 0 6.661 1.891.83.862 1.611 2.239 1.611 4.211 0 2.09-.88 3.682-1.81 4.627-.764.78-2.49 1.957-5.565 1.957-.598 0-1.28-.05-1.91-.1-.632-.048-1.213-.098-1.63-.098-.18 0-.547 0-.945.016-.382 0-.814.034-1.146.034-.217 0-.332-.05-.332-.167 0-.083.065-.134.265-.134.25 0 .449-.032.598-.065.333-.066.416-.431.482-.912.083-.697.083-2.006.083-3.532v-2.92c0-2.52 0-2.984-.033-3.515zm-38.34-.73c-1.91 0-4.085 1.062-4.085 5.191 0 3.45 1.91 6.186 5.099 6.186 1.164 0 3.853-.564 3.853-5.356 0-3.715-2.142-6.02-4.867-6.02zm11.667.73c-.032-.564-.166-.829-.714-.944a3.382 3.382 0 0 0-.649-.051c-.183 0-.283-.033-.283-.149 0-.115.117-.149.366-.149.882 0 1.927.05 2.276.05.565 0 1.828-.05 2.343-.05 1.046 0 2.159.1 3.056.713.464.315 1.13 1.16 1.13 2.273 0 1.226-.514 2.354-2.193 3.714 1.479 1.857 2.625 3.333 3.606 4.36.93.962 1.61 1.079 1.859 1.129.184.033.333.048.466.048s.2.05.2.134c0 .133-.116.167-.317.167h-1.577c-.932 0-1.347-.084-1.778-.316-.715-.382-1.346-1.161-2.276-2.438-.665-.912-1.428-2.039-1.645-2.289-.084-.099-.183-.115-.3-.115l-1.444-.034c-.082 0-.132.034-.132.133v.231c0 1.544 0 2.853.082 3.55.05.481.15.846.648.912.25.033.615.065.814.065.133 0 .2.05.2.134 0 .117-.117.167-.333.167-.963 0-2.192-.05-2.442-.05-.316 0-1.361.05-2.026.05-.217 0-.332-.05-.332-.167 0-.083.065-.134.264-.134.25 0 .45-.032.599-.065.333-.066.416-.431.482-.912.083-.697.083-2.006.083-3.532v-2.92c0-2.52 0-2.984-.033-3.515zm-72.015 8.107l1.863 1.863-1.684 1.685-1.865-1.864 1.686-1.684m4.231-9.262l-1.864-1.863 8.512-8.506.071.072 4.06 4.056-1.865 1.863-2.266-2.264-6.648 6.642m-4.632 4.635l6.642 6.647-1.863 1.866-8.434-8.443-.072-.07 4.128-4.131 1.863 1.866-2.264 2.265m20.282 2.269l2.264-2.266-6.642-6.648 1.863-1.864 8.506 8.512-4.126 4.13-1.865-1.864m-2.358 2.358l1.864 1.863-8.511 8.506-4.131-4.126 1.866-1.865 2.265 2.264 6.647-6.642m4.223-9.262l-1.865-1.863 1.686-1.684 1.863 1.863-1.684 1.684m-4.38 13.64l1.685 1.686-1.864 1.863-1.684-1.684 1.863-1.865m-11.125-19.881l-1.863 1.863-1.685-1.684 1.864-1.865 1.684 1.686m2.515 15.503l1.865 1.863-6.064 6.064-1.864-1.863 6.063-6.064m4.234-.494l-1.867-1.865 6.4-6.4 1.864 1.867-6.397 6.398m-.003-8.768l-1.864-1.863 6.064-6.064 1.864 1.865-6.063 6.062m-4.224.504l1.867 1.866-6.4 6.398-1.864-1.865 6.397-6.4m-.153 4.38l6.398 6.398-1.865 1.867-6.4-6.4 1.867-1.864m-2.37-2.369l-1.863 1.865-6.064-6.064 1.865-1.863 6.062 6.062m8.768.008l-1.865 1.867-6.4-6.4 1.867-1.864 6.398 6.397m2.357 2.36l6.064 6.063-1.863 1.864-6.064-6.063 1.863-1.863m18.05-3.397c-.2-.613-.383-1.012-.614-1.177-.183-.116-.515-.15-.664-.15-.167 0-.266-.015-.266-.149 0-.115.132-.149.365-.149.863 0 1.777.05 1.926.05.15 0 .881-.05 1.844-.05.233 0 .35.05.35.15 0 .133-.134.148-.3.148-.132 0-.299 0-.415.066-.15.068-.183.184-.183.365 0 .217.166.78.366 1.526.281 1.094 1.827 6.12 2.125 7.049h.05l3.223-8.657c.166-.464.283-.598.416-.598.183 0 .265.249.48.78l3.457 8.358h.049c.3-1.112 1.629-5.489 2.21-7.43.116-.38.167-.729.167-.961 0-.265-.15-.498-.798-.498-.167 0-.284-.05-.284-.149 0-.115.134-.149.384-.149.88 0 1.578.05 1.727.05.117 0 .83-.05 1.378-.05.183 0 .3.034.3.133 0 .115-.084.165-.233.165-.167 0-.399.018-.582.084-.398.149-.58.811-.93 1.757-.763 2.09-2.508 7.363-3.321 9.85-.183.581-.266.78-.483.78-.166 0-.265-.199-.515-.813l-3.455-8.324h-.032c-.316.846-2.526 6.732-3.24 8.258-.316.68-.4.879-.599.879-.167 0-.232-.183-.382-.614l-3.522-10.53M583.96 1152c4.136 0 6.71 2.404 6.71 6.202 0 3.797-2.658 6.798-6.877 6.798-4.767 0-6.694-3.564-6.694-6.5 0-2.837 1.877-6.5 6.86-6.5z"/></defs><use fill="#fff" xlink:href="#a" transform="translate(-519 -1142)"/></svg>