<svg xmlns="http://www.w3.org/2000/svg" xmlns:xlink="http://www.w3.org/1999/xlink" width="130" height="32" viewBox="0 0 130 32"><defs><path id="a" d="M225.54 68.842h4.795v5.003h-4.795zm-2.097-13.28h4.395l-4.995 16.383c-.7 2.198-1.598 5.494-3.097 6.693-1.199.9-2.297 1.1-3.696 1.1-1.298 0-1.798-.1-2.497-.2V75.84c.4.1.899.1 1.199.1 2.497 0 2.897-1.498 2.996-1.898l-5.494-15.384h-3.197v8.99c0 .7 0 1.5.4 1.899.5.499 1.399.499 1.598.499.7 0 1.399-.1 1.898-.2v3.696c-.599.1-1.598.3-3.096.3-3.996 0-5.195-1.398-5.195-4.395v-10.79h-2.597v15.085h-4.296v-18.18h6.893v-6.494h4.396v6.493h6.892l4.096 13.486 3.397-13.486m-25.574-7.192h4.296v4.404h-4.296zm-6.693-.2h4.396v25.675h-4.396zm-1.998 12.086v10.392c0 1.498 0 1.798.8 2.997h-5.195l-.1-1.399c-1.199 1-3.197 1.899-5.394 1.899-4.196 0-6.594-2.498-6.594-5.596 0-3.996 3.097-5.495 6.494-6.194 2.697-.4 4.395-.9 5.594-1.3 0-1.398-.4-2.697-3.097-2.697-3.297 0-3.596 1.699-3.596 2.698l-4.396-.2c0-1.2.3-5.795 7.892-5.795 5.295 0 7.592 1.998 7.592 5.195zm-4.495 6.892h-.1v-2.4c-.7.3-1.798.8-3.396 1-1.998.3-3.996.6-3.996 2.5 0 1.201.799 2.202 2.997 2.202 2.097 0 4.495-1 4.495-3.302zm-17.082-3.395h.1V55.66h4.395v18.185h-4.395v-1.899c-.8.9-2.598 2.299-5.794 2.299-3.097 0-4.496-1.3-5.295-2.398-.999-1.5-1.099-3.198-1.099-4.797V55.56h4.396v10.491c0 1.799.4 4.097 3.496 4.097 2.098 0 3.197-1.299 3.496-1.998.7-1.3.7-2.998.7-4.397m-43.555-4.296V55.56h14.585v3.397l-9.49 10.891h9.49v.6l9.79-10.991h-8.791V55.56h14.685v3.397l-9.69 10.891h9.69v3.897h-31.268v-3.297l9.89-10.991h-8.89m-6.294-11.087h4.295v4.404h-4.295zm0 7.19h4.295v18.185h-4.295zm-8.392 12.59l3.697-12.59h4.495l-5.994 18.185h-4.595L101.07 55.56h4.495l3.796 12.59"/></defs><use fill="#fff" xlink:href="#a" transform="translate(-101 -48)"/></svg>