<?xml version="1.0" encoding="UTF-8" standalone="no"?><svg width="414" height="102" viewBox="0 0 414 102" xmlns="http://www.w3.org/2000/svg"><g fill="none" fill-rule="evenodd"><path d="M134.6 44.9c-1.4 0-2.7-.2-3.9-.7-1.2-.5-2.2-1.1-3.1-1.9-.9-.8-1.6-1.8-2.1-2.9-.5-1.1-.7-2.4-.7-3.8v-.1c0-1.3.2-2.5.7-3.7.5-1.1 1.2-2.1 2-3 .9-.8 1.9-1.5 3.1-2 1.2-.5 2.5-.7 3.9-.7 1.6 0 3 .2 4.1.7 1.1.5 2.2 1.1 3.2 1.9l-2.9 3.5c-.7-.5-1.3-1-2-1.3-.7-.3-1.5-.4-2.4-.4-.7 0-1.3.1-1.8.4-.6.3-1 .6-1.5 1.1-.4.4-.7 1-1 1.6-.2.6-.4 1.2-.4 1.9v.1c0 .7.1 1.4.4 2 .2.6.6 1.1 1 1.6.4.4 1 .8 1.5 1 .6.2 1.3.4 2 .4 1.2 0 2.1-.2 2.9-.7v-2.2H134V34h8.3v8.1c-1 .8-2.1 1.4-3.4 2-1.2.5-2.6.8-4.3.8zM159.4 44.9c-1.4 0-2.7-.2-3.9-.7-1.2-.5-2.2-1.2-3.1-2-.9-.8-1.5-1.8-2-3-.5-1.1-.7-2.3-.7-3.6v-.1c0-1.3.2-2.5.7-3.6.5-1.1 1.2-2.1 2-3 .9-.8 1.9-1.5 3.1-2 1.2-.5 2.5-.7 3.9-.7s2.7.2 3.9.7c1.2.5 2.2 1.2 3.1 2 .9.8 1.5 1.8 2 3 .5 1.1.7 2.3.7 3.6v.1c0 1.3-.2 2.5-.7 3.6-.5 1.1-1.2 2.1-2 3-.9.8-1.9 1.5-3.1 2-1.2.5-2.5.7-3.9.7zm.1-4.5c.7 0 1.3-.1 1.9-.4.6-.3 1-.6 1.4-1 .4-.4.7-.9.9-1.5.2-.6.3-1.2.3-1.9v-.1c0-.7-.1-1.3-.3-1.9-.2-.6-.5-1.1-1-1.5-.4-.4-.9-.8-1.5-1.1-.6-.3-1.2-.4-1.9-.4s-1.3.1-1.9.4c-.6.3-1 .6-1.4 1-.4.4-.7.9-.9 1.5-.2.6-.3 1.2-.3 1.9v.1c0 .7.1 1.3.3 1.9.2.6.5 1.1.9 1.5.4.4.9.8 1.5 1.1.6.3 1.3.4 2 .4zM175.5 26.5h5.6l4.1 11.4 4.1-11.4h5.5l-7.3 18.1h-4.6l-7.4-18.1zM201.6 26.5h14.5v4.2h-9.5v2.7h8.6v3.9h-8.6v2.9h9.7v4.2h-14.6V26.5h-.1zM223.9 26.5h8.5c1.4 0 2.6.2 3.5.5 1 .3 1.7.8 2.3 1.4 1.1 1 1.6 2.4 1.6 4.2v.1c0 1.4-.3 2.5-1 3.4-.7.9-1.6 1.6-2.7 2.1l4.3 6.3h-5.8L231 39h-2.1v5.5h-5v-18zm8.3 8.7c.9 0 1.5-.2 2-.6.5-.4.7-.9.7-1.6 0-.7-.2-1.3-.7-1.6-.5-.4-1.1-.5-2-.5h-3.3v4.3h3.3zM247.6 26.5h4.7l7.4 9.5v-9.5h4.9v18h-4.4l-7.7-9.9v9.9h-4.9v-18zM279.1 26.4h4.8l7.7 18.1h-5.4l-1.3-3.2H278l-1.3 3.2h-5.2l7.6-18.1zm4.4 11.1l-2-5.1-2 5.1h4zM298.5 26.5h4.7l7.4 9.5v-9.5h4.9v18h-4.4l-7.7-9.9v9.9h-4.9v-18zM332.5 44.9c-1.3 0-2.5-.2-3.6-.7-1.1-.5-2.1-1.1-2.9-1.9-.8-.8-1.5-1.8-2-3-.5-1.1-.7-2.4-.7-3.7v-.1c0-1.3.2-2.5.7-3.7.5-1.1 1.1-2.1 2-3 .8-.8 1.8-1.5 3-2s2.4-.7 3.8-.7c.9 0 1.8.1 2.5.3.8.2 1.4.4 2.1.8.6.3 1.2.7 1.7 1.2s1 1 1.4 1.5l-3.8 2.9c-.5-.7-1.1-1.2-1.7-1.5-.6-.4-1.4-.6-2.2-.6-.6 0-1.2.1-1.7.4-.5.2-1 .6-1.4 1-.4.4-.7.9-.9 1.5-.2.6-.3 1.2-.3 1.9v.1c0 .7.1 1.3.3 1.9.2.6.5 1.1.9 1.5.4.4.8.8 1.4 1 .5.2 1.1.4 1.7.4.5 0 .9-.1 1.3-.2s.7-.3 1.1-.5c.3-.2.6-.4.9-.7.3-.3.6-.6.8-.9l3.8 2.7c-.4.6-.9 1.1-1.4 1.6-.5.5-1.1.9-1.7 1.3-.6.4-1.4.6-2.2.8-1 .3-1.9.4-2.9.4zM347.8 26.5h14.5v4.2h-9.5v2.7h8.6v3.9h-8.6v2.9h9.7v4.2h-14.6V26.5h-.1zM125.4 58.3h6.9c1.6 0 3 .2 4.3.7 1.3.4 2.3 1.1 3.2 1.8.9.8 1.5 1.7 2 2.8.5 1.1.7 2.3.7 3.6v.1c0 1.3-.2 2.5-.7 3.6-.5 1.1-1.1 2.1-2 2.9-.9.8-2 1.4-3.2 1.9-1.3.5-2.7.7-4.3.7h-6.8V58.3h-.1zm7.1 13.6c1.5 0 2.7-.4 3.6-1.2.9-.8 1.4-1.9 1.4-3.4v-.1c0-1.4-.5-2.6-1.4-3.4-.9-.8-2.1-1.2-3.6-1.2h-2v9.2h2v.1zM156.5 58.1h4.8l7.7 18.1h-5.4l-1.3-3.2h-6.9l-1.3 3.2h-5.2l7.6-18.1zm4.4 11.1l-2-5.1-2 5.1h4zM180.3 62.6h-5.4v-4.4h15.8v4.4h-5.4v13.6h-5V62.6zM204.2 58.1h4.8l7.7 18.1h-5.4L210 73h-6.9l-1.3 3.2h-5.2l7.6-18.1zm4.4 11.1l-2-5.1-2 5.1h4zM249.1 58.1h4.8l7.7 18.1h-5.4l-1.3-3.2H248l-1.3 3.2h-5.2l7.6-18.1zm4.3 11.1l-2-5.1-2 5.1h4zM268.4 58.3h5v13.6h8.7v4.4h-13.7v-18zM289.4 58.3h5v13.6h8.7v4.4h-13.7v-18zM310.5 58.3h5v18h-5v-18zM330.2 58.1h4.8l7.7 18.1h-5.4L336 73h-6.9l-1.3 3.2h-5.2l7.6-18.1zm4.4 11.1l-2-5.1-2 5.1h4zM349.6 58.3h4.7l7.4 9.5v-9.5h4.9v18h-4.4l-7.7-9.9v9.9h-4.9v-18zM383.6 76.6c-1.3 0-2.5-.2-3.6-.7-1.1-.5-2.1-1.1-2.9-1.9-.8-.8-1.5-1.8-2-3-.5-1.1-.7-2.4-.7-3.7v-.1c0-1.3.2-2.5.7-3.7.5-1.1 1.1-2.1 2-3 .8-.8 1.8-1.5 3-2s2.4-.7 3.8-.7c.9 0 1.8.1 2.5.3.8.2 1.4.4 2.1.8.6.3 1.2.7 1.7 1.2s1 1 1.4 1.5l-3.8 2.9c-.5-.7-1.1-1.2-1.7-1.5-.6-.4-1.4-.6-2.2-.6-.6 0-1.2.1-1.7.4-.5.2-1 .6-1.4 1-.4.4-.7.9-.9 1.5-.2.6-.3 1.2-.3 1.9v.1c0 .7.1 1.3.3 1.9.2.6.5 1.1.9 1.5.4.4.8.8 1.4 1 .5.2 1.1.4 1.7.4.5 0 .9-.1 1.3-.2s.7-.3 1.1-.5c.3-.2.6-.4.9-.7.3-.3.6-.6.8-.9l3.8 2.7c-.4.6-.9 1.1-1.4 1.6-.5.5-1.1.9-1.7 1.3-.6.4-1.4.6-2.2.8-1 .3-1.9.4-2.9.4zM398.9 58.3h14.5v4.2h-9.5v2.7h8.6v3.9h-8.6V72h9.7v4.2H399V58.3h-.1z" fill="#FFF"/><path d="M37.162 51.003l13.364-13.365L63.89 51.003 50.526 64.367zM21.9 66.4c-2.2 2.2-2.2 5.7 0 7.9l5.5 5.5c2.2 2.2 5.7 2.2 7.9 0l4.3-4.3L26.2 62l-4.3 4.4zM79.4 35.6c2.2-2.2 2.2-5.7 0-7.9l-5.5-5.5c-2.2-2.2-5.7-2.2-7.9 0l-4.3 4.3L75 40l4.4-4.4zM35.3 22.3c-2.2-2.2-5.7-2.2-7.9 0l-5.5 5.5c-2.2 2.2-2.2 5.7 0 7.9l4.3 4.3 13.4-13.4-4.3-4.3zM66 79.7c2.2 2.2 5.7 2.2 7.9 0l5.5-5.5c2.2-2.2 2.2-5.7 0-7.9L75 62 61.6 75.4l4.4 4.3z"/><path d="M61.6 26.6l-11-11L39.2 4.2c-4.4-4.4-11.5-4.4-15.9 0L3.7 23.8c-4.4 4.4-4.4 11.5 0 15.9l11.4 11.4 11-11-4.3-4.3c-2.2-2.2-2.2-5.7 0-7.9l5.5-5.5c2.2-2.2 5.7-2.2 7.9 0l4.3 4.3 11 11L64 51l11-11-13.4-13.4z" fill="#CACACA"/><path d="M97.4 62.4L86 51 75 62l4.3 4.3c2.2 2.2 2.2 5.7 0 7.9l-5.5 5.5c-2.2 2.2-5.7 2.2-7.9 0l-4.3-4.3-11-11L37.2 51l-11 11 13.4 13.4 11 11L62 97.8c4.4 4.4 11.5 4.4 15.9 0l19.6-19.6c4.3-4.3 4.3-11.4-.1-15.8z" fill="#CACACA"/><path d="M35.3 79.7c-2.2 2.2-5.7 2.2-7.9 0l-5.5-5.5c-2.2-2.2-2.2-5.7 0-7.9l4.3-4.3 11-11 13.4-13.4-11-11L26.2 40l-11 11L3.8 62.4c-4.4 4.4-4.4 11.5 0 15.9l19.6 19.6c4.4 4.4 11.5 4.4 15.9 0l11.4-11.4-11-11-4.4 4.2z" fill="#FFF"/><path d="M97.4 23.8L77.8 4.2c-4.4-4.4-11.5-4.4-15.9 0L50.5 15.6l11 11 4.3-4.3c2.2-2.2 5.7-2.2 7.9 0l5.5 5.5c2.2 2.2 2.2 5.7 0 7.9L75 40 64 51 50.6 64.4l11 11L75 62l11-11 11.4-11.4c4.4-4.4 4.4-11.5 0-15.8z" fill="#FFF"/></g></svg>