<?xml version="1.0" encoding="UTF-8" standalone="no"?><svg version="1.0" xmlns="http://www.w3.org/2000/svg" viewBox="0 0 153 100"><g fill="#FFF"><path d="M29.971 36.332c5.511-14.369 19.451-24.596 35.737-24.596 16.283 0 30.22 10.227 35.736 24.596h10.935c-5.92-20.187-24.596-34.975-46.671-34.975-22.073 0-40.747 14.789-46.668 34.975h10.931zM101.21 64.874c-5.177 14.336-17.071 27.59-30.718 33.531 19.521-1.915 35.685-15.426 41.516-33.531H101.21z"/><path d="M85.242 36.332H96c-5.395-14.925-19.822-20.441-29.184-20.441 8.401 4.281 15.021 11.57 18.426 20.441zM30.482 64.874H19.597c6.228 15.605 22.341 19.237 28.806 19.237a38.502 38.502 0 0 1-17.921-19.237zM.93 47.772h10.396c.984-14.27 12.087-36.901 33.4-46.179C20.872 3.931 2.029 23.577.93 47.772z"/><path d="M84.749 64.874c-5.817 13.729-19.421 23.388-35.245 23.388-20.243 0-36.863-15.809-38.171-35.734H.944c1.319 25.648 22.589 46.114 48.56 46.114 21.636 0 40.016-14.201 46.314-33.769H84.749z"/><path d="M23.422 40.834v19.427h-4.843V40.834h4.843zM30.081 47.192c.413-.446.689-.77 1.432-1.13a6.955 6.955 0 0 1 2.612-.523c.854 0 1.818.165 2.56.578 1.515.794 1.9 2.092 1.9 4.317v9.827h-4.21V52.17c0-1.294-.028-1.76-.194-2.145-.331-.77-1.073-1.104-1.9-1.104-2.229 0-2.229 1.789-2.229 3.58v7.76h-4.238V45.923h4.266v1.269zM41.803 41.741h4.21v4.487h2.781v2.588h-2.809v6.465c-.026.881-.026 1.622 1.101 1.622l1.515-.054v3.305c-.91.135-1.458.218-2.23.218-1.458 0-3.055-.082-3.962-1.404-.58-.854-.605-1.872-.605-3.247v-6.935h-2.095V46.2h2.095v-4.459zM64.035 56.602c-.495.742-.989 1.458-1.734 2.148-1.237 1.152-3.109 2.034-5.422 2.034-4.265 0-7.264-2.724-7.264-7.428 0-3.469 1.705-7.928 7.373-7.928.855 0 3.331.084 5.177 2.065 1.869 2.006 1.98 4.816 2.035 6.439H53.936c-.028 1.789.99 3.578 3.275 3.578 2.312 0 3.108-1.512 3.631-2.53l3.193 1.622zm-4.211-5.312c-.081-.606-.192-1.403-.798-2.034-.522-.526-1.321-.802-2.064-.802a2.92 2.92 0 0 0-2.147.935c-.576.636-.714 1.296-.851 1.901h5.86zM69.673 47.382c.938-.799 1.957-1.432 4.156-1.653v3.745l-1.401.219c-2.038.357-2.645.662-2.645 2.476v8.091h-4.238V45.869h4.128v1.513zM86.063 40.834l7.155 19.427h-5.173l-.963-3.107h-7.156l-.964 3.107h-5.173l7.21-19.427h5.064zm-2.615 4.62c-.248.993-.523 2.01-.799 3-.412 1.461-1.155 3.744-1.596 5.203h4.927l-2.532-8.203zM105.927 56.875c-.522.828-1.098 1.739-2.253 2.562a7.158 7.158 0 0 1-4.129 1.294c-2.753 0-7.127-1.652-7.127-7.516 0-4.18 2.419-7.703 7.209-7.703 1.596 0 4.32.439 6.137 3.439l-3.137 1.789c-.249-.524-.522-1.018-1.211-1.513a2.816 2.816 0 0 0-1.597-.497c-2.284 0-3.055 2.616-3.055 4.351 0 1.899.934 4.292 3.192 4.292.22 0 1.266 0 2.148-.989.357-.417.495-.745.633-1.158l3.19 1.649zM108.486 41.741h4.21v4.487h2.78v2.588h-2.808v6.465c-.029.881-.029 1.622 1.099 1.622l1.516-.054v3.305c-.908.135-1.458.218-2.228.218-1.46 0-3.056-.082-3.963-1.404-.578-.854-.606-1.872-.606-3.247v-6.935h-2.093V46.2h2.093v-4.459zM117.206 45.869h4.184v14.392h-4.184V45.869zM117.206 41.646h4.184v2.564h-4.184v-2.564zM138.148 53.051c0 3.634-2.093 7.625-7.706 7.625-4.045 0-7.733-2.312-7.733-7.625 0-4.406 2.777-7.898 8.282-7.598 5.864.334 7.157 4.982 7.157 7.598zm-10.456-2.835c-.523.829-.718 1.816-.718 2.805 0 2.287 1.103 4.297 3.469 4.297 2.284 0 3.413-1.844 3.413-4.103 0-1.592-.387-2.833-1.183-3.6-.882-.829-1.873-.857-2.478-.799-1.212.081-1.926.494-2.503 1.4zM143.569 47.192c.409-.446.688-.77 1.43-1.13a6.969 6.969 0 0 1 2.613-.523c.856 0 1.819.165 2.559.578 1.515.794 1.899 2.092 1.899 4.317v9.827h-4.21V52.17c0-1.294-.026-1.76-.194-2.145-.33-.77-1.072-1.104-1.896-1.104-2.231 0-2.231 1.789-2.231 3.58v7.76h-4.236V45.923h4.267v1.269z"/></g></svg>