<?xml version="1.0" encoding="UTF-8" standalone="no"?><svg width="181" height="28" viewBox="0 0 181 28" xmlns="http://www.w3.org/2000/svg"><g fill="#FFF" fill-rule="evenodd"><path d="M.58 21.98c0 .66.51 1.17 1.17 1.17.66 0 1.14-.51 1.14-1.17v-7.86c0-2.91 1.98-4.86 4.65-4.86 2.73 0 4.29 1.8 4.29 4.68v8.04c0 .66.51 1.17 1.17 1.17.63 0 1.14-.51 1.14-1.17v-8.61c0-3.69-2.19-6.21-5.94-6.21-2.67 0-4.29 1.35-5.31 3.03V8.51c0-.66-.51-1.17-1.17-1.17-.63 0-1.14.54-1.14 1.17v13.47zm17.46-7.59c.3-3.03 2.34-5.28 5.04-5.28 3.09 0 4.71 2.46 4.95 5.28h-9.99zm11.25 6.63c.24-.21.36-.48.36-.75 0-.54-.45-.99-1.02-.99-.27 0-.48.12-.66.27-1.14 1.05-2.55 1.8-4.47 1.8-2.76 0-5.13-1.89-5.46-5.25h11.22c.57 0 1.08-.45 1.08-1.08 0-4.11-2.61-7.86-7.2-7.86-4.29 0-7.44 3.6-7.44 8.07v.06c0 4.8 3.48 8.07 7.74 8.07 2.64 0 4.38-.93 5.85-2.34zm2.73 5.76c0 .66.51 1.17 1.17 1.17.66 0 1.14-.51 1.14-1.17v-6.75c1.2 1.74 3.06 3.3 5.94 3.3 3.75 0 7.41-3 7.41-8.07v-.06c0-5.1-3.69-8.04-7.41-8.04-2.85 0-4.68 1.59-5.94 3.45v-2.1c0-.66-.51-1.17-1.17-1.17-.63 0-1.14.51-1.14 1.17v18.27zm7.83-5.52c-2.88 0-5.61-2.4-5.61-6v-.06c0-3.54 2.73-5.97 5.61-5.97 2.94 0 5.46 2.34 5.46 6v.06c0 3.75-2.46 5.97-5.46 5.97zm14.88 2.01c.9 0 1.62-.15 2.28-.42.39-.15.66-.48.66-.9 0-.54-.45-.99-.99-.99-.18 0-.6.21-1.41.21-1.56 0-2.61-.69-2.61-2.58V9.53h4.02c.57 0 1.05-.45 1.05-1.02 0-.54-.48-1.02-1.05-1.02h-4.02V3.83c0-.63-.54-1.17-1.17-1.17-.66 0-1.14.54-1.14 1.17v3.66h-1.26c-.54 0-1.02.45-1.02 1.02 0 .54.48 1.02 1.02 1.02h1.26v9.36c0 3.15 1.89 4.38 4.38 4.38zm4.53-20.25c0 .72.6 1.23 1.35 1.23.78 0 1.38-.51 1.38-1.23v-.39c0-.75-.6-1.23-1.38-1.23-.75 0-1.35.48-1.35 1.23v.39zm.21 18.96c0 .66.51 1.17 1.17 1.17.66 0 1.14-.51 1.14-1.17V8.51c0-.66-.51-1.17-1.17-1.17-.63 0-1.14.54-1.14 1.17v13.47zm10.41 1.32c3.09 0 5.52-1.71 5.52-4.65v-.06c0-2.79-2.58-3.72-4.98-4.44-2.07-.63-3.99-1.2-3.99-2.67v-.06c0-1.29 1.17-2.25 3-2.25 1.32 0 2.73.45 4.05 1.2.12.06.3.12.51.12.57 0 1.02-.45 1.02-.99 0-.45-.27-.78-.57-.96-1.5-.81-3.3-1.32-4.95-1.32-3.06 0-5.28 1.77-5.28 4.44v.06c0 2.85 2.7 3.69 5.13 4.38 2.04.57 3.87 1.17 3.87 2.73v.06c0 1.5-1.35 2.46-3.21 2.46-1.68 0-3.33-.57-4.92-1.65a.923.923 0 0 0-.57-.18c-.57 0-1.02.45-1.02.99 0 .39.21.69.42.84 1.68 1.2 3.93 1.95 5.97 1.95zM84.63 27.86c2.46 0 4.53-.69 5.91-2.07 1.26-1.26 1.98-3.09 1.98-5.49V8.51c0-.63-.51-1.17-1.17-1.17-.66 0-1.14.54-1.14 1.17v1.77c-1.26-1.68-3.15-3.12-6.06-3.12-3.69 0-7.29 2.79-7.29 7.32v.06c0 4.47 3.57 7.26 7.29 7.26 2.85 0 4.74-1.47 6.09-3.27v1.83c0 3.63-2.22 5.52-5.64 5.52-2.01 0-3.87-.6-5.49-1.68a.93.93 0 0 0-.51-.15c-.54 0-1.05.51-1.05 1.02 0 .42.24.78.6.96 1.95 1.2 4.11 1.83 6.48 1.83zm-.03-8.1c-2.88 0-5.37-2.16-5.37-5.28v-.06c0-3.18 2.43-5.22 5.37-5.22s5.7 2.07 5.7 5.25v.06c0 3.12-2.76 5.25-5.7 5.25zm12.06-5.37c.3-3.03 2.34-5.28 5.04-5.28 3.09 0 4.71 2.46 4.95 5.28h-9.99zm11.25 6.63c.24-.21.36-.48.36-.75 0-.54-.45-.99-1.02-.99-.27 0-.48.12-.66.27-1.14 1.05-2.55 1.8-4.47 1.8-2.76 0-5.13-1.89-5.46-5.25h11.22c.57 0 1.08-.45 1.08-1.08 0-4.11-2.61-7.86-7.2-7.86-4.29 0-7.44 3.6-7.44 8.07v.06c0 4.8 3.48 8.07 7.74 8.07 2.64 0 4.38-.93 5.85-2.34zm9.81 2.34c4.68 0 8.13-3.72 8.13-8.1v-.06c0-4.38-3.42-8.04-8.07-8.04-4.68 0-8.1 3.72-8.1 8.1v.06c0 4.38 3.39 8.04 8.04 8.04zm.06-2.07c-3.27 0-5.73-2.7-5.73-6.03v-.06c0-3.27 2.31-6 5.67-6 3.27 0 5.76 2.73 5.76 6.06v.06c0 3.27-2.34 5.97-5.7 5.97zm14.28 1.95h.06c.6 0 1.05-.36 1.26-1.05l3.9-11.31 3.87 11.31c.21.69.66 1.05 1.26 1.05h.09c.54 0 1.02-.36 1.26-1.05l4.74-13.14c.06-.18.15-.42.15-.63 0-.57-.48-1.08-1.14-1.08-.63 0-.96.42-1.11.9l-3.96 11.7-3.9-11.67c-.18-.54-.57-.93-1.2-.93h-.12c-.6 0-.96.39-1.14.93l-3.93 11.67-3.9-11.64c-.18-.57-.57-.96-1.17-.96-.69 0-1.17.54-1.17 1.11 0 .21.09.45.15.63l4.71 13.11c.24.69.72 1.05 1.29 1.05zm19.02-8.85c.3-3.03 2.34-5.28 5.04-5.28 3.09 0 4.71 2.46 4.95 5.28h-9.99zm11.25 6.63c.24-.21.36-.48.36-.75 0-.54-.45-.99-1.02-.99-.27 0-.48.12-.66.27-1.14 1.05-2.55 1.8-4.47 1.8-2.76 0-5.13-1.89-5.46-5.25h11.22c.57 0 1.08-.45 1.08-1.08 0-4.11-2.61-7.86-7.2-7.86-4.29 0-7.44 3.6-7.44 8.07v.06c0 4.8 3.48 8.07 7.74 8.07 2.64 0 4.38-.93 5.85-2.34zm2.73.96c0 .63.51 1.17 1.17 1.17.66 0 1.14-.54 1.14-1.17v-1.95c1.2 1.74 3.06 3.3 5.94 3.3 3.75 0 7.41-3 7.41-8.07v-.06c0-5.1-3.69-8.04-7.41-8.04-2.85 0-4.68 1.59-5.94 3.45V2.12c0-.66-.51-1.17-1.17-1.17-.63 0-1.14.51-1.14 1.17v19.86zm7.83-.72c-2.88 0-5.61-2.4-5.61-6v-.06c0-3.54 2.73-5.97 5.61-5.97 2.94 0 5.46 2.34 5.46 6v.06c0 3.75-2.46 5.97-5.46 5.97z"/></g></svg>